<?xml version="1.0" encoding="UTF-8"?>
<svg xmlns="http://www.w3.org/2000/svg" xmlns:xlink="http://www.w3.org/1999/xlink"
     width="170" height="170" viewBox="0 -1700 1700 1700">
<defs>
</defs>
<rect x="415" y="-485" width="70" height="70" rx="15" fill="#84A1AE" />
<rect x="415" y="-585" width="70" height="70" rx="15" fill="#84A1AE" />
<rect x="415" y="-685" width="70" height="70" rx="15" fill="#84A1AE" />
<rect x="415" y="-785" width="70" height="70" rx="15" fill="#84A1AE" />
<rect x="415" y="-885" width="70" height="70" rx="15" fill="#84A1AE" />
<rect x="415" y="-985" width="70" height="70" rx="15" fill="#84A1AE" />
<rect x="415" y="-1085" width="70" height="70" rx="15" fill="#84A1AE" />
<rect x="415" y="-1185" width="70" height="70" rx="15" fill="#84A1AE" />
<rect x="415" y="-1285" width="70" height="70" rx="15" fill="#84A1AE" />
<rect x="515" y="-485" width="70" height="70" rx="15" fill="#84A1AE" />
<rect x="515" y="-1285" width="70" height="70" rx="15" fill="#84A1AE" />
<rect x="615" y="-485" width="70" height="70" rx="15" fill="#84A1AE" />
<rect x="615" y="-785" width="70" height="70" rx="15" fill="#84A1AE" />
<rect x="615" y="-1285" width="70" height="70" rx="15" fill="#84A1AE" />
<rect x="715" y="-485" width="70" height="70" rx="15" fill="#84A1AE" />
<rect x="715" y="-1285" width="70" height="70" rx="15" fill="#84A1AE" />
<rect x="815" y="-485" width="70" height="70" rx="15" fill="#84A1AE" />
<rect x="815" y="-885" width="70" height="70" rx="15" fill="#84A1AE" />
<rect x="815" y="-1285" width="70" height="70" rx="15" fill="#84A1AE" />
<rect x="915" y="-485" width="70" height="70" rx="15" fill="#84A1AE" />
<rect x="915" y="-1285" width="70" height="70" rx="15" fill="#84A1AE" />
<rect x="1015" y="-485" width="70" height="70" rx="15" fill="#84A1AE" />
<rect x="1015" y="-785" width="70" height="70" rx="15" fill="#84A1AE" />
<rect x="1015" y="-1185" width="70" height="70" rx="15" fill="#84A1AE" />
<rect x="1015" y="-1285" width="70" height="70" rx="15" fill="#84A1AE" />
<rect x="1115" y="-485" width="70" height="70" rx="15" fill="#84A1AE" />
<rect x="1115" y="-1085" width="70" height="70" rx="15" fill="#84A1AE" />
<rect x="1115" y="-1185" width="70" height="70" rx="15" fill="#84A1AE" />
<rect x="1115" y="-1285" width="70" height="70" rx="15" fill="#84A1AE" />
<rect x="1215" y="-485" width="70" height="70" rx="15" fill="#84A1AE" />
<rect x="1215" y="-585" width="70" height="70" rx="15" fill="#84A1AE" />
<rect x="1215" y="-685" width="70" height="70" rx="15" fill="#84A1AE" />
<rect x="1215" y="-785" width="70" height="70" rx="15" fill="#84A1AE" />
<rect x="1215" y="-885" width="70" height="70" rx="15" fill="#84A1AE" />
<rect x="1215" y="-985" width="70" height="70" rx="15" fill="#84A1AE" />
<rect x="1215" y="-1085" width="70" height="70" rx="15" fill="#84A1AE" />
<rect x="1215" y="-1185" width="70" height="70" rx="15" fill="#84A1AE" />
<rect x="1215" y="-1285" width="70" height="70" rx="15" fill="#84A1AE" />
<circle cx="950" cy="-550" r="35" fill="#c1433c">
<animate repeatCount="indefinite" keyTimes="0.0;0.0217391304;0.0434782609;0.0652173913;0.0869565217;0.1086956522;0.1304347826;0.1739130435;0.1956521739;0.2173913043;0.2608695652;0.2826086957;0.3260869565;0.347826087;0.3695652174;0.3913043478;0.4347826087;0.4565217391;0.5;0.5217391304;0.5434782609;1.0" attributeName="cy" dur="12.600000000000001s" values="-550;-550;-650;-650;-750;-750;-850;-850;-750;-650;-650;-550;-550;-650;-750;-850;-850;-750;-750;-850;-950;-950" />
<animate repeatCount="indefinite" keyTimes="0.0;0.0217391304;0.0434782609;0.0652173913;0.0869565217;0.1086956522;0.1304347826;0.152173913;0.1739130435;0.2173913043;0.2391304348;0.2608695652;0.2826086957;0.3043478261;0.3260869565;0.3913043478;0.4130434783;0.4347826087;0.4565217391;0.4782608696;0.5;0.5434782609;0.5652173913;0.5869565217;0.6086956522;0.6304347826;1.0" attributeName="cx" dur="12.600000000000001s" values="950;950;950;850;850;750;750;650;550;550;650;750;750;650;550;550;650;750;750;850;950;950;850;750;650;550;550" />
<animate repeatCount="indefinite" keyTimes="0.0;0.0217391304;0.6086956522;0.6304347826;1.0" attributeName="visibility" dur="12.600000000000001s" values="visible;visible;visible;hidden;hidden" />
</circle>
<circle cx="1150" cy="-850" r="35" fill="#2e6f9e">
<animate repeatCount="indefinite" keyTimes="0.0;0.0217391304;0.0652173913;0.0869565217;0.1739130435;0.1956521739;0.2608695652;0.2826086957;0.347826087;0.3695652174;0.3913043478;0.4782608696;0.5;0.5217391304;0.5434782609;0.5652173913;0.6086956522;0.6304347826;0.6956521739;0.7173913043;0.7391304348;0.7608695652;0.7826086957;0.8043478261;0.8260869565;0.847826087;0.9130434783;0.9347826087;0.9565217391;0.9782608696;1.0" attributeName="cy" dur="12.600000000000001s" values="-850;-850;-850;-950;-950;-1050;-1050;-1150;-1150;-1050;-950;-950;-1050;-1150;-1150;-1050;-1050;-1150;-1150;-1050;-1050;-950;-950;-850;-750;-650;-650;-750;-750;-850;-850" />
<animate repeatCount="indefinite" keyTimes="0.0;0.0217391304;0.0434782609;0.0652173913;0.0869565217;0.1086956522;0.1304347826;0.152173913;0.1739130435;0.1956521739;0.2173913043;0.2391304348;0.2608695652;0.2826086957;0.3043478261;0.3260869565;0.347826087;0.3913043478;0.4130434783;0.4347826087;0.4565217391;0.4782608696;0.5217391304;0.5434782609;0.5652173913;0.5869565217;0.6086956522;0.6304347826;0.652173913;0.6739130435;0.6956521739;0.7173913043;0.7391304348;0.7608695652;0.7826086957;0.847826087;0.8695652174;0.8913043478;0.9130434783;0.9347826087;0.9565217391;0.9782608696;1.0" attributeName="cx" dur="12.600000000000001s" values="1150;1150;1050;950;950;850;750;650;550;550;650;750;850;850;750;650;550;550;650;750;850;950;950;850;850;750;650;650;750;850;950;950;1050;1050;1150;1150;1050;950;850;850;750;750;650" />
<animate repeatCount="indefinite" keyTimes="0.0;0.0217391304;0.9782608696;1.0" attributeName="visibility" dur="12.600000000000001s" values="visible;visible;visible;hidden" />
</circle>
<circle cx="550" cy="-950" r="35" stroke="#c1433c" stroke-width="10" fill="none">
<animate repeatCount="indefinite" keyTimes="0.0;0.0217391304;0.6086956522;0.6304347826;1.0" attributeName="visibility" dur="12.600000000000001s" values="visible;visible;visible;hidden;hidden" />
</circle>
<circle cx="650" cy="-850" r="35" stroke="#2e6f9e" stroke-width="10" fill="none">
<animate repeatCount="indefinite" keyTimes="0.0;0.0217391304;0.9782608696;1.0" attributeName="visibility" dur="12.600000000000001s" values="visible;visible;visible;hidden" />
</circle>
</svg>