<?xml version="1.0" encoding="UTF-8"?>
<svg xmlns="http://www.w3.org/2000/svg" xmlns:xlink="http://www.w3.org/1999/xlink"
     width="220" height="220" viewBox="0 -2200 2200 2200">
<defs>
</defs>
<rect x="415" y="-485" width="70" height="70" rx="15" fill="#84A1AE" />
<rect x="415" y="-585" width="70" height="70" rx="15" fill="#84A1AE" />
<rect x="415" y="-685" width="70" height="70" rx="15" fill="#84A1AE" />
<rect x="415" y="-785" width="70" height="70" rx="15" fill="#84A1AE" />
<rect x="415" y="-885" width="70" height="70" rx="15" fill="#84A1AE" />
<rect x="415" y="-985" width="70" height="70" rx="15" fill="#84A1AE" />
<rect x="415" y="-1085" width="70" height="70" rx="15" fill="#84A1AE" />
<rect x="415" y="-1185" width="70" height="70" rx="15" fill="#84A1AE" />
<rect x="415" y="-1285" width="70" height="70" rx="15" fill="#84A1AE" />
<rect x="415" y="-1385" width="70" height="70" rx="15" fill="#84A1AE" />
<rect x="415" y="-1485" width="70" height="70" rx="15" fill="#84A1AE" />
<rect x="415" y="-1585" width="70" height="70" rx="15" fill="#84A1AE" />
<rect x="415" y="-1685" width="70" height="70" rx="15" fill="#84A1AE" />
<rect x="415" y="-1785" width="70" height="70" rx="15" fill="#84A1AE" />
<rect x="515" y="-485" width="70" height="70" rx="15" fill="#84A1AE" />
<rect x="515" y="-585" width="70" height="70" rx="15" fill="#84A1AE" />
<rect x="515" y="-885" width="70" height="70" rx="15" fill="#84A1AE" />
<rect x="515" y="-1285" width="70" height="70" rx="15" fill="#84A1AE" />
<rect x="515" y="-1385" width="70" height="70" rx="15" fill="#84A1AE" />
<rect x="515" y="-1485" width="70" height="70" rx="15" fill="#84A1AE" />
<rect x="515" y="-1685" width="70" height="70" rx="15" fill="#84A1AE" />
<rect x="515" y="-1785" width="70" height="70" rx="15" fill="#84A1AE" />
<rect x="615" y="-485" width="70" height="70" rx="15" fill="#84A1AE" />
<rect x="615" y="-1185" width="70" height="70" rx="15" fill="#84A1AE" />
<rect x="615" y="-1385" width="70" height="70" rx="15" fill="#84A1AE" />
<rect x="615" y="-1785" width="70" height="70" rx="15" fill="#84A1AE" />
<rect x="715" y="-485" width="70" height="70" rx="15" fill="#84A1AE" />
<rect x="715" y="-885" width="70" height="70" rx="15" fill="#84A1AE" />
<rect x="715" y="-985" width="70" height="70" rx="15" fill="#84A1AE" />
<rect x="715" y="-1185" width="70" height="70" rx="15" fill="#84A1AE" />
<rect x="715" y="-1285" width="70" height="70" rx="15" fill="#84A1AE" />
<rect x="715" y="-1485" width="70" height="70" rx="15" fill="#84A1AE" />
<rect x="715" y="-1585" width="70" height="70" rx="15" fill="#84A1AE" />
<rect x="715" y="-1785" width="70" height="70" rx="15" fill="#84A1AE" />
<rect x="815" y="-485" width="70" height="70" rx="15" fill="#84A1AE" />
<rect x="815" y="-585" width="70" height="70" rx="15" fill="#84A1AE" />
<rect x="815" y="-685" width="70" height="70" rx="15" fill="#84A1AE" />
<rect x="815" y="-985" width="70" height="70" rx="15" fill="#84A1AE" />
<rect x="815" y="-1185" width="70" height="70" rx="15" fill="#84A1AE" />
<rect x="815" y="-1285" width="70" height="70" rx="15" fill="#84A1AE" />
<rect x="815" y="-1685" width="70" height="70" rx="15" fill="#84A1AE" />
<rect x="815" y="-1785" width="70" height="70" rx="15" fill="#84A1AE" />
<rect x="915" y="-485" width="70" height="70" rx="15" fill="#84A1AE" />
<rect x="915" y="-785" width="70" height="70" rx="15" fill="#84A1AE" />
<rect x="915" y="-885" width="70" height="70" rx="15" fill="#84A1AE" />
<rect x="915" y="-1085" width="70" height="70" rx="15" fill="#84A1AE" />
<rect x="915" y="-1485" width="70" height="70" rx="15" fill="#84A1AE" />
<rect x="915" y="-1585" width="70" height="70" rx="15" fill="#84A1AE" />
<rect x="915" y="-1785" width="70" height="70" rx="15" fill="#84A1AE" />
<rect x="1015" y="-485" width="70" height="70" rx="15" fill="#84A1AE" />
<rect x="1015" y="-685" width="70" height="70" rx="15" fill="#84A1AE" />
<rect x="1015" y="-1385" width="70" height="70" rx="15" fill="#84A1AE" />
<rect x="1015" y="-1785" width="70" height="70" rx="15" fill="#84A1AE" />
<rect x="1115" y="-485" width="70" height="70" rx="15" fill="#84A1AE" />
<rect x="1115" y="-1085" width="70" height="70" rx="15" fill="#84A1AE" />
<rect x="1115" y="-1285" width="70" height="70" rx="15" fill="#84A1AE" />
<rect x="1115" y="-1785" width="70" height="70" rx="15" fill="#84A1AE" />
<rect x="1215" y="-485" width="70" height="70" rx="15" fill="#84A1AE" />
<rect x="1215" y="-1085" width="70" height="70" rx="15" fill="#84A1AE" />
<rect x="1215" y="-1285" width="70" height="70" rx="15" fill="#84A1AE" />
<rect x="1215" y="-1785" width="70" height="70" rx="15" fill="#84A1AE" />
<rect x="1315" y="-485" width="70" height="70" rx="15" fill="#84A1AE" />
<rect x="1315" y="-585" width="70" height="70" rx="15" fill="#84A1AE" />
<rect x="1315" y="-1085" width="70" height="70" rx="15" fill="#84A1AE" />
<rect x="1315" y="-1385" width="70" height="70" rx="15" fill="#84A1AE" />
<rect x="1315" y="-1785" width="70" height="70" rx="15" fill="#84A1AE" />
<rect x="1415" y="-485" width="70" height="70" rx="15" fill="#84A1AE" />
<rect x="1415" y="-685" width="70" height="70" rx="15" fill="#84A1AE" />
<rect x="1415" y="-785" width="70" height="70" rx="15" fill="#84A1AE" />
<rect x="1415" y="-885" width="70" height="70" rx="15" fill="#84A1AE" />
<rect x="1415" y="-1485" width="70" height="70" rx="15" fill="#84A1AE" />
<rect x="1415" y="-1785" width="70" height="70" rx="15" fill="#84A1AE" />
<rect x="1515" y="-485" width="70" height="70" rx="15" fill="#84A1AE" />
<rect x="1515" y="-585" width="70" height="70" rx="15" fill="#84A1AE" />
<rect x="1515" y="-885" width="70" height="70" rx="15" fill="#84A1AE" />
<rect x="1515" y="-1185" width="70" height="70" rx="15" fill="#84A1AE" />
<rect x="1515" y="-1385" width="70" height="70" rx="15" fill="#84A1AE" />
<rect x="1515" y="-1585" width="70" height="70" rx="15" fill="#84A1AE" />
<rect x="1515" y="-1785" width="70" height="70" rx="15" fill="#84A1AE" />
<rect x="1615" y="-485" width="70" height="70" rx="15" fill="#84A1AE" />
<rect x="1615" y="-685" width="70" height="70" rx="15" fill="#84A1AE" />
<rect x="1615" y="-785" width="70" height="70" rx="15" fill="#84A1AE" />
<rect x="1615" y="-1185" width="70" height="70" rx="15" fill="#84A1AE" />
<rect x="1615" y="-1385" width="70" height="70" rx="15" fill="#84A1AE" />
<rect x="1615" y="-1785" width="70" height="70" rx="15" fill="#84A1AE" />
<rect x="1715" y="-485" width="70" height="70" rx="15" fill="#84A1AE" />
<rect x="1715" y="-585" width="70" height="70" rx="15" fill="#84A1AE" />
<rect x="1715" y="-685" width="70" height="70" rx="15" fill="#84A1AE" />
<rect x="1715" y="-785" width="70" height="70" rx="15" fill="#84A1AE" />
<rect x="1715" y="-885" width="70" height="70" rx="15" fill="#84A1AE" />
<rect x="1715" y="-985" width="70" height="70" rx="15" fill="#84A1AE" />
<rect x="1715" y="-1085" width="70" height="70" rx="15" fill="#84A1AE" />
<rect x="1715" y="-1185" width="70" height="70" rx="15" fill="#84A1AE" />
<rect x="1715" y="-1285" width="70" height="70" rx="15" fill="#84A1AE" />
<rect x="1715" y="-1385" width="70" height="70" rx="15" fill="#84A1AE" />
<rect x="1715" y="-1485" width="70" height="70" rx="15" fill="#84A1AE" />
<rect x="1715" y="-1585" width="70" height="70" rx="15" fill="#84A1AE" />
<rect x="1715" y="-1685" width="70" height="70" rx="15" fill="#84A1AE" />
<rect x="1715" y="-1785" width="70" height="70" rx="15" fill="#84A1AE" />
<circle cx="1350" cy="-950" r="35" fill="#c1433c">
<animate repeatCount="indefinite" keyTimes="0.0;0.1111111111;0.4444444444;0.5555555556;1.0" attributeName="cy" dur="2.24s" values="-950;-950;-950;-850;-850" />
<animate repeatCount="indefinite" keyTimes="0.0;0.1111111111;0.2222222222;0.3333333333;0.4444444444;1.0" attributeName="cx" dur="2.24s" values="1350;1350;1450;1550;1650;1650" />
<animate repeatCount="indefinite" keyTimes="0.0;0.1111111111;0.4444444444;0.5555555556;1.0" attributeName="visibility" dur="2.24s" values="visible;visible;visible;hidden;hidden" />
</circle>
<circle cx="1050" cy="-1050" r="35" fill="#2e6f9e">
<animate repeatCount="indefinite" keyTimes="0.0;0.1111111111;0.2222222222;0.6666666667;0.7777777778;1.0" attributeName="cy" dur="2.24s" values="-1050;-1050;-1150;-1150;-1050;-1050" />
<animate repeatCount="indefinite" keyTimes="0.0;0.1111111111;0.2222222222;0.3333333333;0.4444444444;0.5555555556;0.6666666667;0.7777777778;0.8888888889;1.0" attributeName="cx" dur="2.24s" values="1050;1050;1050;1150;1250;1350;1450;1450;1550;1650" />
<animate repeatCount="indefinite" keyTimes="0.0;0.1111111111;0.8888888889;1.0" attributeName="visibility" dur="2.24s" values="visible;visible;visible;hidden" />
</circle>
<circle cx="650" cy="-950" r="35" fill="#6e81af">
<animate repeatCount="indefinite" keyTimes="0.0;0.1111111111;0.2222222222;1.0" attributeName="cy" dur="2.24s" values="-950;-950;-1050;-1050" />
<animate repeatCount="indefinite" keyTimes="0.0;0.1111111111;0.2222222222;0.3333333333;1.0" attributeName="cx" dur="2.24s" values="650;650;650;750;750" />
<animate repeatCount="indefinite" keyTimes="0.0;0.1111111111;0.2222222222;0.3333333333;1.0" attributeName="visibility" dur="2.24s" values="visible;visible;visible;hidden;hidden" />
</circle>
<circle cx="1650" cy="-850" r="35" stroke="#c1433c" stroke-width="10" fill="none">
<animate repeatCount="indefinite" keyTimes="0.0;0.1111111111;0.4444444444;0.5555555556;1.0" attributeName="visibility" dur="2.24s" values="visible;visible;visible;hidden;hidden" />
</circle>
<circle cx="1650" cy="-1050" r="35" stroke="#2e6f9e" stroke-width="10" fill="none">
<animate repeatCount="indefinite" keyTimes="0.0;0.1111111111;0.8888888889;1.0" attributeName="visibility" dur="2.24s" values="visible;visible;visible;hidden" />
</circle>
<circle cx="750" cy="-1050" r="35" stroke="#6e81af" stroke-width="10" fill="none">
<animate repeatCount="indefinite" keyTimes="0.0;0.1111111111;0.2222222222;0.3333333333;1.0" attributeName="visibility" dur="2.24s" values="visible;visible;visible;hidden;hidden" />
</circle>
</svg>