<?xml version="1.0" encoding="UTF-8"?>
<svg xmlns="http://www.w3.org/2000/svg" xmlns:xlink="http://www.w3.org/1999/xlink"
     width="210" height="210" viewBox="0 -2100 2100 2100">
<defs>
</defs>
<rect x="415" y="-485" width="70" height="70" rx="15" fill="#84A1AE" />
<rect x="415" y="-585" width="70" height="70" rx="15" fill="#84A1AE" />
<rect x="415" y="-685" width="70" height="70" rx="15" fill="#84A1AE" />
<rect x="415" y="-785" width="70" height="70" rx="15" fill="#84A1AE" />
<rect x="415" y="-885" width="70" height="70" rx="15" fill="#84A1AE" />
<rect x="415" y="-985" width="70" height="70" rx="15" fill="#84A1AE" />
<rect x="415" y="-1085" width="70" height="70" rx="15" fill="#84A1AE" />
<rect x="415" y="-1185" width="70" height="70" rx="15" fill="#84A1AE" />
<rect x="415" y="-1285" width="70" height="70" rx="15" fill="#84A1AE" />
<rect x="415" y="-1385" width="70" height="70" rx="15" fill="#84A1AE" />
<rect x="415" y="-1485" width="70" height="70" rx="15" fill="#84A1AE" />
<rect x="415" y="-1585" width="70" height="70" rx="15" fill="#84A1AE" />
<rect x="415" y="-1685" width="70" height="70" rx="15" fill="#84A1AE" />
<rect x="515" y="-485" width="70" height="70" rx="15" fill="#84A1AE" />
<rect x="515" y="-885" width="70" height="70" rx="15" fill="#84A1AE" />
<rect x="515" y="-1585" width="70" height="70" rx="15" fill="#84A1AE" />
<rect x="515" y="-1685" width="70" height="70" rx="15" fill="#84A1AE" />
<rect x="615" y="-485" width="70" height="70" rx="15" fill="#84A1AE" />
<rect x="615" y="-585" width="70" height="70" rx="15" fill="#84A1AE" />
<rect x="615" y="-1685" width="70" height="70" rx="15" fill="#84A1AE" />
<rect x="715" y="-485" width="70" height="70" rx="15" fill="#84A1AE" />
<rect x="715" y="-685" width="70" height="70" rx="15" fill="#84A1AE" />
<rect x="715" y="-785" width="70" height="70" rx="15" fill="#84A1AE" />
<rect x="715" y="-885" width="70" height="70" rx="15" fill="#84A1AE" />
<rect x="715" y="-1085" width="70" height="70" rx="15" fill="#84A1AE" />
<rect x="715" y="-1685" width="70" height="70" rx="15" fill="#84A1AE" />
<rect x="815" y="-485" width="70" height="70" rx="15" fill="#84A1AE" />
<rect x="815" y="-985" width="70" height="70" rx="15" fill="#84A1AE" />
<rect x="815" y="-1185" width="70" height="70" rx="15" fill="#84A1AE" />
<rect x="815" y="-1385" width="70" height="70" rx="15" fill="#84A1AE" />
<rect x="815" y="-1685" width="70" height="70" rx="15" fill="#84A1AE" />
<rect x="915" y="-485" width="70" height="70" rx="15" fill="#84A1AE" />
<rect x="915" y="-885" width="70" height="70" rx="15" fill="#84A1AE" />
<rect x="915" y="-985" width="70" height="70" rx="15" fill="#84A1AE" />
<rect x="915" y="-1285" width="70" height="70" rx="15" fill="#84A1AE" />
<rect x="915" y="-1485" width="70" height="70" rx="15" fill="#84A1AE" />
<rect x="915" y="-1685" width="70" height="70" rx="15" fill="#84A1AE" />
<rect x="1015" y="-485" width="70" height="70" rx="15" fill="#84A1AE" />
<rect x="1015" y="-785" width="70" height="70" rx="15" fill="#84A1AE" />
<rect x="1015" y="-885" width="70" height="70" rx="15" fill="#84A1AE" />
<rect x="1015" y="-1485" width="70" height="70" rx="15" fill="#84A1AE" />
<rect x="1015" y="-1685" width="70" height="70" rx="15" fill="#84A1AE" />
<rect x="1115" y="-485" width="70" height="70" rx="15" fill="#84A1AE" />
<rect x="1115" y="-585" width="70" height="70" rx="15" fill="#84A1AE" />
<rect x="1115" y="-1685" width="70" height="70" rx="15" fill="#84A1AE" />
<rect x="1215" y="-485" width="70" height="70" rx="15" fill="#84A1AE" />
<rect x="1215" y="-685" width="70" height="70" rx="15" fill="#84A1AE" />
<rect x="1215" y="-1285" width="70" height="70" rx="15" fill="#84A1AE" />
<rect x="1215" y="-1685" width="70" height="70" rx="15" fill="#84A1AE" />
<rect x="1315" y="-485" width="70" height="70" rx="15" fill="#84A1AE" />
<rect x="1315" y="-985" width="70" height="70" rx="15" fill="#84A1AE" />
<rect x="1315" y="-1685" width="70" height="70" rx="15" fill="#84A1AE" />
<rect x="1415" y="-485" width="70" height="70" rx="15" fill="#84A1AE" />
<rect x="1415" y="-685" width="70" height="70" rx="15" fill="#84A1AE" />
<rect x="1415" y="-1285" width="70" height="70" rx="15" fill="#84A1AE" />
<rect x="1415" y="-1685" width="70" height="70" rx="15" fill="#84A1AE" />
<rect x="1515" y="-485" width="70" height="70" rx="15" fill="#84A1AE" />
<rect x="1515" y="-1185" width="70" height="70" rx="15" fill="#84A1AE" />
<rect x="1515" y="-1685" width="70" height="70" rx="15" fill="#84A1AE" />
<rect x="1615" y="-485" width="70" height="70" rx="15" fill="#84A1AE" />
<rect x="1615" y="-585" width="70" height="70" rx="15" fill="#84A1AE" />
<rect x="1615" y="-685" width="70" height="70" rx="15" fill="#84A1AE" />
<rect x="1615" y="-785" width="70" height="70" rx="15" fill="#84A1AE" />
<rect x="1615" y="-885" width="70" height="70" rx="15" fill="#84A1AE" />
<rect x="1615" y="-985" width="70" height="70" rx="15" fill="#84A1AE" />
<rect x="1615" y="-1085" width="70" height="70" rx="15" fill="#84A1AE" />
<rect x="1615" y="-1185" width="70" height="70" rx="15" fill="#84A1AE" />
<rect x="1615" y="-1285" width="70" height="70" rx="15" fill="#84A1AE" />
<rect x="1615" y="-1385" width="70" height="70" rx="15" fill="#84A1AE" />
<rect x="1615" y="-1485" width="70" height="70" rx="15" fill="#84A1AE" />
<rect x="1615" y="-1585" width="70" height="70" rx="15" fill="#84A1AE" />
<rect x="1615" y="-1685" width="70" height="70" rx="15" fill="#84A1AE" />
<circle cx="1250" cy="-1450" r="35" fill="#c1433c">
<animate repeatCount="indefinite" keyTimes="0.0;0.0666666667;0.1333333333;0.2;0.2666666667;0.3333333333;0.4;0.4666666667;0.5333333333;0.6;0.6666666667;0.8666666667;0.9333333333;1.0" attributeName="cy" dur="3.9200000000000004s" values="-1450;-1450;-1350;-1350;-1250;-1150;-1050;-950;-850;-750;-650;-650;-550;-550" />
<animate repeatCount="indefinite" keyTimes="0.0;0.0666666667;0.1333333333;0.2;0.6666666667;0.7333333333;0.8;0.8666666667;0.9333333333;1.0" attributeName="cx" dur="3.9200000000000004s" values="1250;1250;1250;1150;1150;1050;950;850;850;750" />
<animate repeatCount="indefinite" keyTimes="0.0;0.0666666667;0.9333333333;1.0" attributeName="visibility" dur="3.9200000000000004s" values="visible;visible;visible;hidden" />
</circle>
<circle cx="1150" cy="-1350" r="35" fill="#2e6f9e">
<animate repeatCount="indefinite" keyTimes="0.0;0.0666666667;0.1333333333;0.2;1.0" attributeName="cy" dur="3.9200000000000004s" values="-1350;-1350;-1450;-1550;-1550" />
<animate repeatCount="indefinite" keyTimes="0.0;0.0666666667;0.2;0.2666666667;0.3333333333;1.0" attributeName="cx" dur="3.9200000000000004s" values="1150;1150;1150;1050;950;950" />
<animate repeatCount="indefinite" keyTimes="0.0;0.0666666667;0.2666666667;0.3333333333;1.0" attributeName="visibility" dur="3.9200000000000004s" values="visible;visible;visible;hidden;hidden" />
</circle>
<circle cx="850" cy="-650" r="35" fill="#6e81af">
<animate repeatCount="indefinite" keyTimes="0.0;0.0666666667;0.2666666667;0.3333333333;0.4666666667;0.5333333333;0.6;1.0" attributeName="cy" dur="3.9200000000000004s" values="-650;-650;-650;-750;-750;-650;-550;-550" />
<animate repeatCount="indefinite" keyTimes="0.0;0.0666666667;0.1333333333;0.2;0.2666666667;0.3333333333;0.4;0.4666666667;0.6;0.6666666667;1.0" attributeName="cx" dur="3.9200000000000004s" values="850;850;950;1050;1150;1150;1250;1350;1350;1450;1450" />
<animate repeatCount="indefinite" keyTimes="0.0;0.0666666667;0.6;0.6666666667;1.0" attributeName="visibility" dur="3.9200000000000004s" values="visible;visible;visible;hidden;hidden" />
</circle>
<circle cx="750" cy="-550" r="35" stroke="#c1433c" stroke-width="10" fill="none">
<animate repeatCount="indefinite" keyTimes="0.0;0.0666666667;0.9333333333;1.0" attributeName="visibility" dur="3.9200000000000004s" values="visible;visible;visible;hidden" />
</circle>
<circle cx="950" cy="-1550" r="35" stroke="#2e6f9e" stroke-width="10" fill="none">
<animate repeatCount="indefinite" keyTimes="0.0;0.0666666667;0.2666666667;0.3333333333;1.0" attributeName="visibility" dur="3.9200000000000004s" values="visible;visible;visible;hidden;hidden" />
</circle>
<circle cx="1450" cy="-550" r="35" stroke="#6e81af" stroke-width="10" fill="none">
<animate repeatCount="indefinite" keyTimes="0.0;0.0666666667;0.6;0.6666666667;1.0" attributeName="visibility" dur="3.9200000000000004s" values="visible;visible;visible;hidden;hidden" />
</circle>
</svg>